<svg xmlns="http://www.w3.org/2000/svg" enable-background="new 0 0 47.5 47.5" viewBox="0 0 47.5 47.5"><defs><clipPath id="a"><path d="M0 38h38V0H0v38Z"/></clipPath></defs><g clip-path="url(#a)" transform="matrix(1.25 0 0 -1.25 0 47.5)"><path fill="#269" d="M0 0a4 4 0 0 1 4-4h24a4 4 0 0 1 4 4v17a4 4 0 0 1-4 4h-9c-3.562 0-3 5-8.437 5H4a4 4 0 0 1-4-4V0Z" transform="translate(1 8)"/><path fill="#55acee" d="M0 0h-6.562C-12 0-11.438-5-15-5h-9a4 4 0 0 1-4-4v-10a1 1 0 1 0-2 0 4 4 0 0 1 4-4H0a4 4 0 0 1 4 4v15a4 4 0 0 1-4 4" transform="translate(31 27)"/></g></svg>